<?xml version="1.0" encoding="utf-8"?>
<!-- Generator: Adobe Illustrator 16.0.2, SVG Export Plug-In . SVG Version: 6.00 Build 0)  -->
<!DOCTYPE svg PUBLIC "-//W3C//DTD SVG 1.1//EN" "http://www.w3.org/Graphics/SVG/1.1/DTD/svg11.dtd">
<svg version="1.1" id="Layer_1" xmlns="http://www.w3.org/2000/svg" xmlns:xlink="http://www.w3.org/1999/xlink" x="0px" y="0px"
	 width="34px" height="34px" viewBox="6 0.75 34 34" enable-background="new 6 0.75 34 34" xml:space="preserve">
<g>
	<path fill="#00A2D1" d="M26.117,14.066c0,0.425,0.283,0.708,0.708,0.708s0.708-0.283,0.708-0.708c0-2.267-1.629-4.108-3.824-4.462
		V8.542c0-0.425-0.284-0.708-0.709-0.708s-0.708,0.283-0.708,0.708v1.133c-2.125,0.354-3.825,2.196-3.825,4.463
		s1.629,4.108,3.825,4.462v6.163c-1.346-0.354-2.408-1.559-2.408-2.975c0-0.425-0.283-0.708-0.708-0.708
		c-0.425,0-0.708,0.283-0.708,0.708c0,2.267,1.629,4.109,3.825,4.462v0.709c0,0.424,0.284,0.707,0.708,0.707
		s0.709-0.283,0.709-0.707v-0.851c2.125-0.354,3.824-2.196,3.824-4.462c0-2.267-1.629-4.108-3.824-4.462v-6.163
		C25.055,11.446,26.117,12.65,26.117,14.066z M19.883,14.066c0-1.487,0.992-2.691,2.408-2.975v6.021
		C20.946,16.758,19.883,15.554,19.883,14.066z M26.117,21.646c0,1.487-0.992,2.692-2.408,2.975V18.6
		C25.055,19.025,26.117,20.229,26.117,21.646z"/>
	<path fill="#00A2D1" d="M23,4.292c-7.438,0-13.458,6.021-13.458,13.458S15.563,31.209,23,31.209s13.459-6.021,13.459-13.459
		S30.438,4.292,23,4.292z M23,29.791c-6.658,0-12.042-5.383-12.042-12.041S16.342,5.708,23,5.708s12.041,5.383,12.041,12.042
		S29.658,29.791,23,29.791z"/>
	<path fill="#00A2D1" d="M23,0.75c-9.35,0-17,7.65-17,17c0,9.35,7.65,17,17,17c9.35,0,17-7.65,17-17C40,8.4,32.35,0.75,23,0.75z
		 M23,33.334c-8.571,0-15.583-7.014-15.583-15.584C7.417,9.179,14.429,2.167,23,2.167c8.57,0,15.584,7.013,15.584,15.583
		C38.584,26.32,31.57,33.334,23,33.334z"/>
</g>
</svg>
