<?xml version="1.0" encoding="utf-8"?>
<!-- Generator: Adobe Illustrator 16.0.2, SVG Export Plug-In . SVG Version: 6.00 Build 0)  -->
<!DOCTYPE svg PUBLIC "-//W3C//DTD SVG 1.1//EN" "http://www.w3.org/Graphics/SVG/1.1/DTD/svg11.dtd">
<svg version="1.1" id="Layer_1" xmlns="http://www.w3.org/2000/svg" xmlns:xlink="http://www.w3.org/1999/xlink" x="0px" y="0px"
	 width="17.898px" height="18.018px" viewBox="37.988 4.765 17.898 18.018" enable-background="new 37.988 4.765 17.898 18.018"
	 xml:space="preserve">
<g>
	<g>
		<path fill="#00A2D1" d="M55.658,6.852c-0.045-0.115-0.145-0.2-0.266-0.227c-0.121-0.025-0.248,0.013-0.336,0.101l-1.471,1.478
			c-0.301,0.303-0.824,0.303-1.125,0c-0.309-0.312-0.309-0.817,0-1.129l1.473-1.478c0.086-0.088,0.125-0.215,0.1-0.337
			c-0.025-0.121-0.111-0.223-0.227-0.268c-0.381-0.15-0.783-0.227-1.195-0.227c-0.873,0-1.693,0.342-2.311,0.962
			c-0.764,0.768-1.098,1.878-0.896,2.94l-7.568,7.6c-1.051-0.189-2.139,0.15-2.891,0.908c-0.92,0.922-1.207,2.307-0.732,3.523
			c0.045,0.115,0.145,0.201,0.266,0.227s0.248-0.012,0.336-0.1l1.471-1.479c0.301-0.301,0.824-0.301,1.125,0
			c0.15,0.15,0.232,0.352,0.232,0.564s-0.082,0.414-0.232,0.564l-1.471,1.479c-0.088,0.086-0.125,0.213-0.102,0.334
			c0.025,0.123,0.111,0.224,0.227,0.269c0.383,0.15,0.785,0.225,1.195,0.225l0,0c0.875,0,1.695-0.339,2.313-0.959
			c0.775-0.781,1.107-1.906,0.891-2.98l7.535-7.566c0.203,0.039,0.412,0.059,0.619,0.059c0.873,0,1.693-0.342,2.311-0.961
			C55.846,9.453,56.133,8.069,55.658,6.852z M54.408,9.854c-0.631,0.635-1.57,0.887-2.436,0.662
			c-0.125-0.033-0.26,0.004-0.352,0.096l-7.822,7.855c-0.094,0.094-0.129,0.23-0.096,0.359c0.24,0.883-0.008,1.832-0.65,2.477
			c-0.563,0.566-1.363,0.83-2.145,0.721l1.021-1.025c0.289-0.289,0.447-0.676,0.447-1.086s-0.16-0.795-0.449-1.086
			c-0.287-0.289-0.672-0.449-1.08-0.449s-0.793,0.16-1.082,0.449l-1.02,1.025c-0.109-0.781,0.148-1.582,0.719-2.154
			c0.623-0.625,1.545-0.881,2.402-0.67c0.125,0.031,0.256-0.006,0.348-0.096l7.852-7.885c0.092-0.092,0.129-0.227,0.096-0.352
			c-0.225-0.874,0.027-1.811,0.658-2.445c0.563-0.564,1.361-0.831,2.143-0.722l-1.02,1.025c-0.594,0.599-0.594,1.572,0,2.171
			c0.289,0.291,0.672,0.451,1.08,0.451s0.793-0.16,1.082-0.451l1.02-1.024C55.234,8.48,54.979,9.281,54.408,9.854z"/>
		<path fill="#00A2D1" d="M49.264,10.896l-5.195,5.215c-0.143,0.143-0.143,0.377,0,0.521c0.072,0.07,0.166,0.107,0.26,0.107
			s0.188-0.037,0.26-0.107l5.193-5.215c0.145-0.145,0.145-0.377,0-0.521C49.639,10.752,49.406,10.752,49.264,10.896z"/>
	</g>
</g>
</svg>
