<?xml version="1.0" encoding="utf-8"?>
<!-- Generator: Adobe Illustrator 16.0.2, SVG Export Plug-In . SVG Version: 6.00 Build 0)  -->
<!DOCTYPE svg PUBLIC "-//W3C//DTD SVG 1.1//EN" "http://www.w3.org/Graphics/SVG/1.1/DTD/svg11.dtd">
<svg version="1.1" id="Layer_1" xmlns="http://www.w3.org/2000/svg" xmlns:xlink="http://www.w3.org/1999/xlink" x="0px" y="0px"
	 width="44px" height="44px" viewBox="6.9 0.75 36.14 41.25" enable-background="new 6.9 0.75 36.14 41.25"
	 xml:space="preserve">
<g>
	<path fill="#00A2D1" d="M15.936,21.375c0-4.538,4.065-8.25,9.035-8.25l0,0v3.3c0,0.825,0.902,1.238,1.58,0.619l7.229-7.425
		c0.453-0.413,0.453-0.825,0-1.237l-7.229-7.425c-0.678-0.412-1.58-0.206-1.58,0.619v3.3l0,0C15.032,4.875,6.9,12.3,6.9,21.375
		c0,4.331,1.807,8.25,4.744,11.137c0.226-0.824,0.678-1.442,1.355-2.062l4.518-4.538C16.387,24.469,15.936,23.024,15.936,21.375z"/>
	<path fill="#00A2D1" d="M43.04,21.375c0-4.331-1.807-8.25-4.744-11.138c-0.225,0.825-0.677,1.444-1.354,2.063l-4.517,4.538
		c1.129,1.444,1.581,2.888,1.581,4.538c0,4.538-4.066,8.25-9.035,8.25v-3.3c0-0.825-0.903-1.237-1.581-0.619l-7.229,7.425
		c-0.452,0.413-0.452,0.825,0,1.238l7.229,7.425c0.678,0.412,1.581,0.206,1.581-0.618v-3.301C34.91,37.875,43.04,30.45,43.04,21.375
		z"/>
</g>
</svg>
