<?xml version="1.0" encoding="utf-8"?>
<!-- Generator: Adobe Illustrator 16.0.2, SVG Export Plug-In . SVG Version: 6.00 Build 0)  -->
<!DOCTYPE svg PUBLIC "-//W3C//DTD SVG 1.1//EN" "http://www.w3.org/Graphics/SVG/1.1/DTD/svg11.dtd">
<svg version="1.1"
	 id="Layer_1" xmlns:dc="http://purl.org/dc/elements/1.1/" xmlns:inkscape="http://www.inkscape.org/namespaces/inkscape" xmlns:cc="http://creativecommons.org/ns#" xmlns:sodipodi="http://sodipodi.sourceforge.net/DTD/sodipodi-0.dtd" xmlns:svg="http://www.w3.org/2000/svg" xmlns:rdf="http://www.w3.org/1999/02/22-rdf-syntax-ns#"
	 xmlns="http://www.w3.org/2000/svg" xmlns:xlink="http://www.w3.org/1999/xlink" x="0px" y="0px" width="43.999px" height="44px"
	 viewBox="29.688 51.739 43.999 44" enable-background="new 29.688 51.739 43.999 44" xml:space="preserve">
<g transform="translate(0,-288.53332)">
	<path fill="#00A2D1" d="M51.685,350.135c-6.694,0-12.138,5.443-12.138,12.138s5.443,12.138,12.138,12.138
		s12.138-5.443,12.138-12.138S58.379,350.135,51.685,350.135z M51.685,351.652c5.874,0,10.62,4.745,10.62,10.62
		c0,5.874-4.746,10.62-10.62,10.62s-10.62-4.746-10.62-10.62C41.064,356.398,45.811,351.652,51.685,351.652z"/>
	<path fill="#00A2D1" d="M51.685,367.728c-1.368,0-2.569,1.024-3.393,2.67l-1.079,2.157l1.357,0.679l1.078-2.157
		c0.676-1.353,1.439-1.831,2.036-1.831s1.36,0.479,2.036,1.831l1.078,2.157l1.357-0.679l-1.078-2.157
		C54.255,368.752,53.053,367.728,51.685,367.728z"/>
	<path fill="#00A2D1" d="M56.871,363.959c-0.422,1.301,0.181,2.761,1.491,4.053l1.718,1.691l1.065-1.08l-1.718-1.693
		c-1.078-1.061-1.298-1.935-1.113-2.502c0.185-0.566,0.876-1.145,2.371-1.37l2.385-0.359l-0.227-1.501l-2.385,0.359
		C58.641,361.831,57.295,362.658,56.871,363.959L56.871,363.959L56.871,363.959z"/>
	<path fill="#00A2D1" d="M54.891,357.861c1.106,0.805,2.682,0.682,4.314-0.166l2.141-1.111l-0.699-1.347l-2.141,1.111
		c-1.342,0.696-2.241,0.636-2.724,0.285s-0.818-1.187-0.57-2.679l0.396-2.379l-1.497-0.249l-0.396,2.38
		C53.413,355.522,53.783,357.057,54.891,357.861L54.891,357.861z"/>
	<path fill="#00A2D1" d="M48.479,357.861c1.107-0.805,1.478-2.34,1.176-4.154l-0.395-2.38l-1.498,0.249l0.396,2.379
		c0.247,1.492-0.089,2.328-0.571,2.679s-1.382,0.411-2.724-0.285l-2.141-1.111l-0.699,1.347l2.141,1.111
		C45.797,358.543,47.372,358.665,48.479,357.861L48.479,357.861z"/>
	<path fill="#00A2D1" d="M46.498,363.959c-0.424-1.301-1.77-2.128-3.588-2.402l-2.385-0.359l-0.227,1.5l2.385,0.36
		c1.495,0.226,2.187,0.803,2.371,1.37c0.184,0.567-0.035,1.441-1.113,2.502l-1.718,1.692l1.065,1.081l1.718-1.692
		C46.317,366.72,46.92,365.26,46.498,363.959L46.498,363.959L46.498,363.959z"/>
	<path fill="#00A2D1" d="M51.685,358.479c-2.085,0-3.793,1.707-3.793,3.794c0,2.085,1.708,3.793,3.793,3.793
		c2.086,0,3.793-1.707,3.793-3.793S53.771,358.479,51.685,358.479z M51.685,359.996c1.266,0,2.276,1.01,2.276,2.276
		c0,1.266-1.01,2.275-2.276,2.275c-1.266,0-2.276-1.01-2.276-2.275C49.408,361.006,50.419,359.996,51.685,359.996z"/>
	<path fill="#00A2D1" d="M52.299,357.029c0.246-0.338,0.17-0.813-0.168-1.059c-0.34-0.246-0.813-0.172-1.061,0.168l0,0
		c-0.246,0.338-0.17,0.813,0.168,1.059C51.578,357.443,52.053,357.369,52.299,357.029L52.299,357.029z"/>
	<path fill="#00A2D1" d="M46.889,360.07c-0.246-0.339-0.721-0.414-1.061-0.168l0,0c-0.338,0.246-0.414,0.721-0.168,1.06
		c0.247,0.339,0.721,0.414,1.061,0.168l0,0C47.06,360.884,47.135,360.409,46.889,360.07z"/>
	<path fill="#00A2D1" d="M48.11,366.152c-0.398,0.129-0.616,0.557-0.487,0.956l0,0c0.13,0.398,0.558,0.616,0.956,0.487l0,0
		c0.398-0.13,0.616-0.558,0.487-0.957C48.938,366.24,48.509,366.023,48.11,366.152L48.11,366.152L48.11,366.152z"/>
	<path fill="#00A2D1" d="M54.274,366.873c0,0.42,0.339,0.76,0.759,0.76l0,0c0.419,0,0.758-0.34,0.758-0.76l0,0
		c0-0.418-0.339-0.758-0.758-0.758l0,0C54.614,366.115,54.274,366.455,54.274,366.873L54.274,366.873z"/>
	<path fill="#00A2D1" d="M56.869,361.231c0.398,0.13,0.826-0.088,0.955-0.486l0,0c0.13-0.398-0.088-0.826-0.486-0.956
		s-0.827,0.088-0.957,0.487l0,0C56.252,360.674,56.47,361.102,56.869,361.231L56.869,361.231L56.869,361.231z"/>
	<path fill="#00A2D1" d="M49.769,340.358c-12.095,1.058-21.054,11.739-19.996,23.834c1.058,12.094,11.736,21.055,23.831,19.996
		c12.094-1.059,21.057-11.736,19.998-23.831C72.544,348.262,61.862,339.299,49.769,340.358L49.769,340.358L49.769,340.358z
		 M49.902,341.868c11.277-0.986,21.201,7.341,22.188,18.618c0.986,11.277-7.341,21.203-18.618,22.189
		c-11.277,0.987-21.202-7.341-22.189-18.618C30.297,352.78,38.625,342.856,49.902,341.868z"/>
	<path fill="#00A2D1" d="M50.885,340.289c-0.418,0.023-0.738,0.382-0.715,0.8c0.008,0.128,0.047,0.251,0.114,0.358l1.126,1.876
		c0.203,0.366,0.665,0.498,1.031,0.295c0.366-0.204,0.498-0.665,0.295-1.031c-0.008-0.015-0.017-0.029-0.025-0.043l-1.126-1.878
		C51.441,340.418,51.171,340.273,50.885,340.289L50.885,340.289z"/>
	<path fill="#00A2D1" d="M43.711,341.827c-0.418,0.001-0.758,0.341-0.758,0.76c0.001,0.233,0.109,0.454,0.293,0.597l1.698,1.379
		c0.325,0.266,0.804,0.217,1.068-0.108c0.266-0.325,0.217-0.804-0.108-1.069c0,0-0.002-0.001-0.003-0.002l-1.701-1.378
		C44.063,341.89,43.891,341.826,43.711,341.827L43.711,341.827z"/>
	<path fill="#00A2D1" d="M37.42,345.742c-0.418,0.021-0.739,0.379-0.717,0.797c0.017,0.313,0.224,0.584,0.521,0.682l2.068,0.714
		c0.395,0.141,0.829-0.065,0.97-0.46c0.142-0.395-0.064-0.828-0.459-0.969c-0.005-0.002-0.011-0.004-0.016-0.006l-2.068-0.714
		c-0.096-0.035-0.198-0.052-0.3-0.046V345.742L37.42,345.742z"/>
	<path fill="#00A2D1" d="M35.111,351.524l-2.189,0.034c-0.418,0.007-0.752,0.353-0.744,0.772c0.007,0.418,0.354,0.752,0.771,0.744
		l2.188-0.034c0.418-0.007,0.753-0.352,0.746-0.771S35.531,351.516,35.111,351.524L35.111,351.524z"/>
	<path fill="#00A2D1" d="M32.709,357.784c-0.094,0-0.188,0.018-0.275,0.052l-2.042,0.785c-0.396,0.139-0.604,0.57-0.466,0.967
		c0.137,0.395,0.57,0.604,0.966,0.466c0.015-0.005,0.028-0.011,0.042-0.017l2.042-0.785c0.393-0.146,0.593-0.582,0.446-0.975
		C33.312,357.979,33.027,357.781,32.709,357.784L32.709,357.784L32.709,357.784z"/>
	<path fill="#00A2D1" d="M32.54,364.499c-0.171,0.011-0.335,0.078-0.462,0.192l-1.65,1.436c-0.333,0.254-0.396,0.73-0.141,1.063
		c0.256,0.333,0.732,0.396,1.064,0.141c0.023-0.02,0.047-0.039,0.068-0.06l1.653-1.435c0.319-0.271,0.36-0.75,0.089-1.069
		C33.008,364.584,32.777,364.485,32.54,364.499z"/>
	<path fill="#00A2D1" d="M34.75,370.853c-0.277,0.001-0.531,0.155-0.663,0.4l-1.062,1.911c-0.219,0.357-0.106,0.824,0.251,1.043
		c0.356,0.219,0.824,0.107,1.044-0.25c0.01-0.018,0.021-0.037,0.03-0.055l1.063-1.915c0.208-0.364,0.081-0.827-0.283-1.034
		C35.016,370.887,34.885,370.852,34.75,370.853L34.75,370.853z"/>
	<path fill="#00A2D1" d="M38.926,376.08c-0.359,0.021-0.654,0.293-0.705,0.648l-0.344,2.164c-0.088,0.409,0.173,0.813,0.582,0.9
		c0.41,0.088,0.813-0.174,0.901-0.583c0.006-0.026,0.01-0.054,0.013-0.081l0.344-2.16c0.072-0.412-0.203-0.806-0.615-0.879
		C39.043,376.08,38.984,376.076,38.926,376.08L38.926,376.08z"/>
	<path fill="#00A2D1" d="M51.342,380.845c-0.418-0.019-0.773,0.306-0.793,0.724c-0.006,0.153,0.033,0.305,0.114,0.436l1.126,1.875
		c0.203,0.367,0.666,0.498,1.031,0.295c0.367-0.203,0.498-0.665,0.295-1.031c-0.008-0.015-0.016-0.029-0.025-0.043l-1.126-1.875
		C51.835,381,51.6,380.857,51.342,380.845L51.342,380.845L51.342,380.845z"/>
	<path fill="#00A2D1" d="M57.938,379.808c-0.418,0.001-0.758,0.341-0.758,0.759c0.001,0.234,0.109,0.455,0.293,0.599l1.698,1.378
		c0.325,0.266,0.804,0.217,1.068-0.108s0.217-0.804-0.108-1.068c-0.001-0.001-0.002-0.002-0.003-0.003l-1.701-1.378
		C58.29,379.871,58.117,379.808,57.938,379.808L57.938,379.808z"/>
	<path fill="#00A2D1" d="M63.855,376.567c-0.418-0.021-0.773,0.303-0.794,0.721c-0.017,0.342,0.197,0.65,0.521,0.758l2.068,0.714
		c0.394,0.143,0.829-0.061,0.972-0.454c0.143-0.395-0.061-0.83-0.455-0.973c-0.007-0.002-0.014-0.005-0.021-0.008l-2.068-0.714
		c-0.071-0.026-0.146-0.042-0.223-0.046V376.567z"/>
	<path fill="#00A2D1" d="M70.422,371.472l-2.187,0.034c-0.419,0.008-0.753,0.354-0.745,0.773c0.008,0.418,0.354,0.752,0.772,0.744
		l0,0l2.187-0.034c0.419-0.008,0.752-0.354,0.745-0.772S70.842,371.465,70.422,371.472z"/>
	<path fill="#00A2D1" d="M72.713,364.455c-0.094,0-0.186,0.018-0.273,0.051l-2.044,0.783c-0.396,0.138-0.604,0.57-0.466,0.967
		c0.137,0.395,0.57,0.604,0.966,0.466c0.015-0.005,0.028-0.011,0.042-0.017l2.045-0.782c0.393-0.146,0.592-0.583,0.446-0.976
		c-0.111-0.299-0.397-0.496-0.716-0.494V364.455L72.713,364.455z"/>
	<path fill="#00A2D1" d="M72.487,357.082c-0.196-0.008-0.39,0.062-0.536,0.193l-1.65,1.434c-0.324,0.266-0.373,0.743-0.107,1.068
		c0.266,0.324,0.743,0.371,1.068,0.106c0.01-0.009,0.021-0.019,0.031-0.028l1.654-1.434c0.32-0.27,0.362-0.748,0.094-1.069
		C72.902,357.189,72.702,357.09,72.487,357.082L72.487,357.082z"/>
	<path fill="#00A2D1" d="M69.682,350.246c-0.277,0.002-0.53,0.156-0.661,0.399l-1.062,1.911c-0.217,0.358-0.103,0.825,0.256,1.043
		c0.357,0.217,0.824,0.103,1.042-0.256c0.01-0.016,0.019-0.032,0.027-0.049l1.063-1.914c0.209-0.364,0.082-0.828-0.282-1.035
		C69.949,350.278,69.816,350.244,69.682,350.246L69.682,350.246L69.682,350.246z"/>
	<path fill="#00A2D1" d="M64.706,344.77c-0.36,0.021-0.657,0.292-0.708,0.648l-0.344,2.16c-0.065,0.414,0.217,0.804,0.631,0.869
		s0.803-0.217,0.868-0.631l0.344-2.16c0.071-0.414-0.206-0.806-0.618-0.877C64.821,344.77,64.764,344.767,64.706,344.77
		L64.706,344.77L64.706,344.77z"/>
	<path fill="#00A2D1" d="M58.229,341.309c-0.419,0.002-0.757,0.344-0.754,0.764c0,0.051,0.006,0.102,0.016,0.151l0.415,2.149
		c0.074,0.412,0.469,0.688,0.882,0.613c0.412-0.074,0.688-0.469,0.613-0.882c-0.002-0.007-0.003-0.015-0.005-0.022l-0.415-2.148
		C58.916,341.57,58.598,341.306,58.229,341.309L58.229,341.309L58.229,341.309z"/>
	<path fill="#00A2D1" d="M44.713,379.55c-0.419,0.003-0.756,0.345-0.754,0.764c0,0.05,0.006,0.101,0.016,0.149l0.418,2.148
		c0.058,0.415,0.44,0.705,0.855,0.648c0.415-0.058,0.705-0.44,0.648-0.855c-0.004-0.027-0.01-0.055-0.016-0.08l-0.415-2.148
		C45.4,379.812,45.082,379.547,44.713,379.55L44.713,379.55L44.713,379.55z"/>
</g>
</svg>
